inDegrees=no
num_controls=7
num_derivatives=13
num_iterations=40
num_multipliers=7
num_parameters=0
num_slacks=7
num_states=26
objective=0.426402
objective_accelerations=0.057160
objective_balance=0.001152
objective_effort=0.015224
objective_height=0.346900
objective_ligament=0.005966
solver_duration=596.440282
status=Solve_Succeeded
success=true
DataType=double
version=3
OpenSimVersion=4.5
endheader
time	/jointset/ground_pelvis/pelvis_tilt/value	/jointset/ground_pelvis/pelvis_tx/value	/jointset/ground_pelvis/pelvis_ty/value	/jointset/hip_l/hip_flexion_l/value	/jointset/hip_l/hip_adduction_l/value	/jointset/hip_l/hip_rotation_l/value	/jointset/back/lumbar_extension/value	/jointset/patellofemoral_l/patellar_flexion_l/value	/jointset/knee_l/knee_flexion_l/value	/jointset/knee_l/knee_adduction_l/value	/jointset/knee_l/knee_rotation_l/value	/jointset/ankle_l/ankle_angle_l/value	/jointset/subtalar_l/subtalar_angle_l/value	/jointset/ground_pelvis/pelvis_tilt/speed	/jointset/ground_pelvis/pelvis_tx/speed	/jointset/ground_pelvis/pelvis_ty/speed	/jointset/hip_l/hip_flexion_l/speed	/jointset/hip_l/hip_adduction_l/speed	/jointset/hip_l/hip_rotation_l/speed	/jointset/back/lumbar_extension/speed	/jointset/patellofemoral_l/patellar_flexion_l/speed	/jointset/knee_l/knee_flexion_l/speed	/jointset/knee_l/knee_adduction_l/speed	/jointset/knee_l/knee_rotation_l/speed	/jointset/ankle_l/ankle_angle_l/speed	/jointset/subtalar_l/subtalar_angle_l/speed	/forceset/tau_hip_flexion_l	/forceset/tau_hip_adduction_l	/forceset/tau_hip_rotation_l	/forceset/tau_knee_flexion_l	/forceset/tau_ankle_angle_l	/forceset/tau_subtalar_angle_l	/forceset/tau_lumbar_extension	lambda_cid13_p0	lambda_cid13_p1	lambda_cid13_p2	lambda_cid13_p3	lambda_cid13_p4	lambda_cid13_p5	lambda_cid14_p0	/jointset/ground_pelvis/pelvis_tilt/accel	/jointset/ground_pelvis/pelvis_tx/accel	/jointset/ground_pelvis/pelvis_ty/accel	/jointset/hip_l/hip_flexion_l/accel	/jointset/hip_l/hip_adduction_l/accel	/jointset/hip_l/hip_rotation_l/accel	/jointset/back/lumbar_extension/accel	/jointset/patellofemoral_l/patellar_flexion_l/accel	/jointset/knee_l/knee_flexion_l/accel	/jointset/knee_l/knee_adduction_l/accel	/jointset/knee_l/knee_rotation_l/accel	/jointset/ankle_l/ankle_angle_l/accel	/jointset/subtalar_l/subtalar_angle_l/accel	gamma_cid13_p0	gamma_cid13_p1	gamma_cid13_p2	gamma_cid13_p3	gamma_cid13_p4	gamma_cid13_p5	gamma_cid14_p0
1	-0.4448409271119474	-0.0008896245948223385	0.5985649315847149	1.682131058324776	-0.346822943745231	0.1236474311326853	-0.4362491091639913	1.497983389341214	1.49798338934127	0.06856636070790534	-0.174452494541455	0.4349989225556049	0.2491281086434323	-0.1469880446087014	0.00167514321097885	0.03206270020154972	0.03215570096849248	0.0003743502240027956	-0.05036587533483626	-0.0008525034103812186	-0.1508127943041545	-0.1508127943041544	-0.009043407239053815	0.0001204718180596778	-0.04905418797575265	-0.02906949166233716	-0.2335071036901241	0.08596107445469403	-0.01483373814615845	-0.2925164964121049	-0.0142953979992043	-0.01455572047642564	0.2051619354110103	-40.45294403679407	24.2764849990746	-16.56969139426918	3.512365267227469	-541.2534316694203	-28.63709419003192	-0.02387623638690233	1.407005239028978	0.2498197551242256	1.980509632703754	-6.524583475692157	-0.2063332326827746	-1.458489043974332	-0.03691947288971445	-5.541140016776985	-5.541140016776996	-0.9285776062047936	-0.02708988111269728	-0.9035226720876885	-0.8722755263832146	-8.521748782197684e-10	-1.334172677954426e-07	-8.783083148931739e-08	-9.969765875109279e-09	-5.591736635582814e-09	-1.922122005854418e-07	1.067071404513442e-08
1.01	-0.4462410881818413	-0.0008603601085077309	0.598984394942189	1.682127328972852	-0.3468290170612354	0.1230731714487285	-0.4362585459285154	1.496198552198776	1.496198552198733	0.06842796328875109	-0.1744512300725018	0.4344631815442574	0.2487946137335256	-0.1330280845603763	0.00418587981915504	0.05182354516252933	-0.03290588139944331	-0.001584515741546787	-0.06449021224690404	-0.001031790521507812	-0.2061550322209487	-0.2061550322209418	-0.01862254206106157	0.0001330850380192128	-0.05810365487793236	-0.0376218184627851	-0.2340039998792312	0.08592665707302496	-0.0148418917073375	-0.2915293444322921	-0.0147113865049423	-0.01450302249009419	0.2054409557410931	-40.54311156497047	24.21094941810243	-16.49249481756392	3.421018201042144	-541.1225292114268	-28.57669971330244	-0.02389274544968528	1.392904905151959	0.2529157105523971	1.972906169537499	-6.497591352601778	-0.1899687450040417	-1.390030458764298	-0.007974483258450758	-5.53082811308221	-5.530828113081166	-0.9705608151997531	0.01550055028886108	-0.9071126593393638	-0.845517940152121	-3.126202947253451e-10	-1.762151338209971e-07	-1.213666359686087e-07	-1.875232105872054e-08	-9.157222298847448e-09	-2.486052076475475e-07	1.361188225394571e-08
1.02	-0.4475011669477755	-0.0008057452367337925	0.5996012735976216	1.681472854650185	-0.3468545401302001	0.1223575435068632	-0.436269683794714	1.49386028019038	1.493860280190244	0.0681941786424221	-0.1744498267460056	0.4338366550718754	0.248375834218959	-0.1189715838153348	0.006745220302844944	0.07154575979321524	-0.09799329317767178	-0.003515600367612854	-0.07863952691662508	-0.001192723753989087	-0.2614997674958057	-0.2614997674957921	-0.0281208526831128	0.0001482433275221898	-0.06721128018236389	-0.04612641259429519	-0.2345008960683909	0.08589223969134256	-0.01485004526838308	-0.290542192452474	-0.01512737501067535	-0.01445032450378395	0.2057199760711181	-40.63559223554083	24.14214683899246	-16.4105827596111	3.321240760927956	-541.1023340230693	-28.52627936395296	-0.023912041659242	1.426313378372251	0.2595405302269732	1.972783566645015	-6.529749357750705	-0.2007769647860768	-1.463484595504973	-0.03324869716005386	-5.541639488389546	-5.541639488389573	-0.9124127662135026	-0.02658086720401254	-0.915154352538047	-0.8627289925956496	-1.217525208634499e-10	-2.16221803786978e-07	-1.49644330859378e-07	-2.671796183025479e-08	-1.289659842428558e-08	-2.965450117891511e-07	1.552479556951699e-08
1.03	-0.4486201074443742	-0.0007252513126358673	0.6004151079623649	1.68016743909532	-0.3468992036962897	0.1215003143438824	-0.4362822705822129	1.490968648659286	1.490968648659203	0.06786589007113362	-0.1744482312513926	0.4331187275296742	0.2478722995759945	-0.1047906082641778	0.009366035763710891	0.09120751060329134	-0.1630891798939905	-0.005410590145147958	-0.09280204845807397	-0.001315638804619369	-0.316817003638626	-0.3168170036386214	-0.03752443843670029	0.000172687131451013	-0.07638726112094107	-0.05456949663918553	-0.2348713362997009	0.08588624540262696	-0.01482444344887082	-0.2892931851113026	-0.01556709117670576	-0.01438398084650832	0.2059362120777755	-40.7130331373889	24.05244488745415	-16.31124416889596	3.202141623781934	-540.8228266726705	-28.45233953257493	-0.02393708168628361	1.417876089195406	0.2652157578119213	1.960827105150226	-6.499412325069742	-0.182851600233298	-1.392001191966254	-0.0004636661827672533	-5.525338911522365	-5.525338911523665	-0.9524833641944553	0.01717970709588023	-0.9207863450601689	-0.8333830659027486	6.555722432872342e-11	-2.561999921605142e-07	-1.778683715706727e-07	-3.46752667404413e-08	-1.663774894219487e-08	-3.443985587580964e-07	1.742721648821846e-08
1.04	-0.4495964608963284	-0.0006181764931702055	0.6014251510886011	1.678211083873977	-0.3469626154833572	0.1205015869137916	-0.4362958166715998	1.487524130119904	1.487524130119885	0.06744393526546708	-0.174446346778165	0.4323086469019753	0.2472846771014879	-0.09045417488469344	0.01206139937639223	0.1107875120918034	-0.2281812264701968	-0.007265244562525399	-0.1069391803395792	-0.001384584141967175	-0.3720771691532124	-0.3720771691532166	-0.04685409956081375	0.000206039051562926	-0.08564189728122626	-0.06294397890275735	-0.2352417765310821	0.08588025111391441	-0.01479884162933515	-0.2880441777701291	-0.01600680734272419	-0.0143176371892206	0.2061524480843579	-40.79304337151247	23.95961103364862	-16.20731471583709	3.074878108645969	-540.6556061728633	-28.38872908151566	-0.02396497852447926	1.457404944037691	0.2744501605900607	1.956433702332212	-6.528981329728232	-0.1927098927545532	-1.458406663516232	-0.02245475450269314	-5.530225362742758	-5.530225362742752	-0.8976278403187183	-0.02479924396740393	-0.9308853968796303	-0.8490086363319483	3.013144217508846e-11	-2.939721465271039e-07	-2.027660279846077e-07	-4.19332919399646e-08	-2.020225559605487e-08	-3.858827638701959e-07	1.863638588811577e-08
1.05	-0.4504286942235333	-0.0004837276318446033	0.6026304958281968	1.675604010366851	-0.3470443524767399	0.1193616531645758	-0.4363094996279367	1.483527413060189	1.483527413060097	0.06692909895430225	-0.1744440724414386	0.4314056016314967	0.2466136898655528	-0.0759682331838388	0.01484566762237179	0.1302590281916489	-0.2932158198247593	-0.0090742625186057	-0.1210326217150694	-0.001315325403051997	-0.4272450267142602	-0.4272450267142636	-0.05610449415044008	0.0002512890666690459	-0.09498245144931428	-0.07123956258942747	-0.2355252760565836	0.08591063636569569	-0.0147421107019073	-0.2865046880030307	-0.01649414300522704	-0.01424228032174078	0.2063466184604274	-40.86665960441778	23.84904124290651	-16.08604928119025	2.924514859794338	-540.2404456457381	-28.29200711233423	-0.02399860955955718	1.447827296994632	0.2829994597134737	1.939144630270005	-6.488050224950392	-0.173774746075093	-1.38257710349095	0.02711844893937578	-5.506887518255254	-5.506887518255103	-0.9374665834864079	0.01948988188367713	-0.9379495610558739	-0.8176671881584208	-1.225482520810177e-11	-3.316753623309765e-07	-2.275597348892503e-07	-4.916946464852969e-08	-2.376124212916332e-08	-4.271679270492691e-07	1.982389117805045e-08
1.06	-0.45111534043096	-0.0003209192274369161	0.6040298825420826	1.672347120548835	-0.3471439350494949	0.1180812321558243	-0.436321389544661	1.478979653111771	1.478979653111617	0.06632201443421742	-0.1744412850530396	0.4304086889924781	0.2458601800020864	-0.06133675092756694	0.01773330799280916	0.1495959069498197	-0.3581444886445284	-0.01083436043629816	-0.1350366322475815	-0.001025976230102576	-0.4822857468940912	-0.4822857468940937	-0.06530374134814189	0.000308649387139249	-0.1044153709887063	-0.07944850440905336	-0.2358087755821854	0.08594102161747784	-0.01468537977443643	-0.2849651982359299	-0.01698147866771409	-0.01416692345425059	0.2065407888363926	-40.94315809784605	23.73546679002405	-15.96029602988664	2.766130441142199	-539.9395904086297	-28.20646996666678	-0.02403520471656149	1.486513055121123	0.2951245854816407	1.929506233997284	-6.507796422769554	-0.1829258850769997	-1.440520494920592	0.02156333230532686	-5.504797886499392	-5.504797886499361	-0.8873983619338358	-0.02237718289460021	-0.9493584711404008	-0.8316802629231027	-2.326404790707866e-10	-3.683373562328813e-07	-2.496629859113999e-07	-5.609242614807736e-08	-2.689829244364864e-08	-4.627623978049767e-07	2.026437524149491e-08
1.07	-0.4516551063966224	-0.0001286578253721496	0.6056218463341586	1.668441821429796	-0.3472608687958238	0.1166611085900991	-0.436328703344054	1.473882287480539	1.473882287480411	0.06562338847671957	-0.1744379006134852	0.4293169959597434	0.245025051267987	-0.04660891946652148	0.02074225899822333	0.1687626625649332	-0.4228632754031728	-0.01254451799933901	-0.1489752654273252	-0.0003411787019510768	-0.5371496061465159	-0.5371496061465199	-0.0744037377467671	0.0003664841185769359	-0.1139372156186465	-0.08756033381879015	-0.2360601128186435	0.08599435770155871	-0.0146026878012836	-0.283082190118662	-0.01755432639804327	-0.01407644682731779	0.2067697638317747	-41.02376193255748	23.60019776524034	-15.81298340728337	2.573019197383985	-539.3926814360824	-28.08947551852116	-0.0240770626506808	1.467046002120571	0.3072606474382127	1.90512584358652	-6.446111513956065	-0.1638320177675037	-1.3686220681887	0.1062787125702775	-5.471518102447388	-5.471518102447623	-0.9186720180885612	0.01952147549920898	-0.9557129088315066	-0.7983007788860775	-4.624941854057861e-10	-4.049439659910645e-07	-2.716231275780977e-07	-6.299872747693262e-08	-3.001289934224975e-08	-4.980541721551861e-07	2.066512413331754e-08
1.08	-0.4520473684855731	9.438914462008101e-05	0.6074044508060491	1.663890896100849	-0.3473946583829555	0.1151019812248416	-0.4363263010186192	1.468237415625216	1.468237415625123	0.06483428820740103	-0.1744340062917518	0.4281296613907259	0.2441093309400129	-0.031835975584502	0.02389042157830194	0.1877240429127061	-0.4872697306235921	-0.0142055285963737	-0.162837392154567	0.0009172488061968084	-0.5917869917122816	-0.5917869917122872	-0.08339860371586301	0.0004106258234667031	-0.1235436782450186	-0.09556682318401209	-0.2363114500551774	0.08604769378563779	-0.01451999582808109	-0.2811991820013926	-0.01812717412836085	-0.01398597020038172	0.2069987388270811	-41.10762553916316	23.46209143301164	-15.66132534169863	2.371936157004056	-538.9623845070348	-27.98471426876241	-0.02412203209277332	1.495535539315906	0.3229669004145544	1.888431180529171	-6.445330115124556	-0.1730964918757846	-1.42521920442018	0.1362893283053901	-5.459503149167594	-5.459503149167594	-0.8663722760279967	-0.02511578820419668	-0.9662820704267472	-0.8106122540201338	-9.040340398226576e-10	-4.364697385467063e-07	-2.867150168163149e-07	-6.877437373143286e-08	-3.277387874948695e-08	-5.227101116107122e-07	2.000425977601737e-08
